# xmcd CD database file
#
# Track frame offsets:
#	150
#	10507
#	24306
#	35986
#	48417
#	58989
#	73369
#	87121
#	98309
#
# Disc length: 1495 seconds
#
# Revision: 0
# Processed by: cddbd v1.5.1PL2 Copyright (c) Steve Scherf et al.
# Submitted via: CDex 1.51
#
DISCID=6e05d509
DTITLE=Ferlin Husky - The Hits of Ferlin Husky
DYEAR=1978
DGENRE=Country
TTITLE0=Wings of a Dove
TTITLE1=Walkin' and Humming'
TTITLE2=I've Got a Womans Love
TTITLE3=Homesick
TTITLE4=Gone
TTITLE5=Hank's Song
TTITLE6=The Waltz You Saved For Me
TTITLE7=Drunken Driver
TTITLE8=I'll Baby sit with You
EXTD=YEAR: 1978
EXTT0=
EXTT1=
EXTT2=
EXTT3=
EXTT4=
EXTT5=
EXTT6=
EXTT7=
EXTT8=
PLAYORDER=
